# xmcd
#
# Track frame offsets:
#	150
#	15852
#	28857
#	43967
#	59312
#	76855
#	93717
#	109797
#	123832
#	139127
#	155322
#	172440
#	190920
#	204645
#
# Disc length: 2951 seconds
#
# Revision: 3
# Processed by: cddbd v1.5.2PL0 Copyright (c) Steve Scherf et al.
# Submitted via: audiograbber 1.83.01
#
DISCID=bf0b850e
DTITLE=Various Artist - Country Hot Hits Volume 30
DYEAR=1900
DGENRE=Country
TTITLE0=Alan Jackson - (Who Says) You Can't Have It All
TTITLE1=John Anderson - I've Got It Made
TTITLE2=Mark Chesnutt - I Just Wanted You To Know
TTITLE3=Billy Dean - We Just Disagree
TTITLE4=Trisha Yearwood - Better Your Heart Than Mine
TTITLE5=Vince Gill - Tryin' To Get Over You
TTITLE6=Daron Norwood - If It Wasn't For Her I Wouldn't Have You
TTITLE7=Martina McBride - Lofe #9
TTITLE8=Blackhawk - Goodbye Says It All
TTITLE9=Diamond Rio - Sawmill Road
TTITLE10=Neal McCoy - No Doubt About It
TTITLE11=Little Texas - My Love
TTITLE12=Marty Stuart - Kiss Me, I'm Gone
TTITLE13=Lee Roy Parnell - I'm Holding My Own
EXTD=
EXTT0=Jackson - Alan
EXTT1=Anderson - John
EXTT2=Chesnutt - Mark
EXTT3=Dean - Billy
EXTT4=Yearwood - Trisha
EXTT5=Gill - Vince
EXTT6=Norwood - Daron
EXTT7=McBride - Martina
EXTT8=Blackhawk
EXTT9=Diamond Rio
EXTT10=McCoy - Neal
EXTT11=Little Texas
EXTT12=Stuart - Marty
EXTT13=Parnell - Lee Roy
PLAYORDER=
